<?xml version="1.0" standalone="no"?><svg xmlns="http://www.w3.org/2000/svg" viewBox="0 0 1440 320"><path fill="#c8befb" fill-opacity="1" d="M0,192L40,192C80,192,160,192,240,208C320,224,400,256,480,240C560,224,640,160,720,138.7C800,117,880,139,960,149.3C1040,160,1120,160,1200,181.3C1280,203,1360,245,1400,266.7L1440,288L1440,320L1400,320C1360,320,1280,320,1200,320C1120,320,1040,320,960,320C880,320,800,320,720,320C640,320,560,320,480,320C400,320,320,320,240,320C160,320,80,320,40,320L0,320Z"></path></svg>